<svg id="Layer_1" data-name="Layer 1" xmlns="http://www.w3.org/2000/svg" viewBox="0 0 500.02 191.53"><defs><style>.cls-1{fill:#588fc6;}.cls-2{fill:#b96772;}.cls-3{fill:#fff;}</style></defs><title>header-text</title><path class="cls-1" d="M105.36,188l-17.61,4.15-1.67-49.93q-.09-2.15.51-10.84l-.15,0q-1.48,7.94-2.39,11.28L69.83,196.33l-18.65,4.39L48.54,113l18.19-4.28-1.57,52.35q0,1-.33,5.81l-.38,5.2.23-.05q.27-1.66,1.11-5.71t1.41-6.1l14.61-55,18.07-4.26.85,52.16-.13,5.26-.22,5.17.16,0,.37-2.24,1.51-8.92,11-54.57,16.35-3.85Z" transform="translate(-11.25 -9.19)"/><path class="cls-1" d="M124,183.58l7.49-64.84,16.34-3.85-7.48,64.84Zm26.81-86.39A20.91,20.91,0,0,1,147.2,107a11.91,11.91,0,0,1-7,5.1q-4,.95-6.12-2.13c-1.42-2-1.91-4.89-1.49-8.52a20.21,20.21,0,0,1,3.51-9.6,11.92,11.92,0,0,1,7-5c2.74-.65,4.81,0,6.22,1.89S151.21,93.48,150.78,97.19Z" transform="translate(-11.25 -9.19)"/><path class="cls-1" d="M173.66,171.88l4.09-35.39q.69-6-.1-8.39a2.44,2.44,0,0,0-3.24-1.79c-1.41.33-2.61,1.5-3.62,3.5a21.85,21.85,0,0,0-2,7.24l-4.27,37-16.35,3.85L155.67,113,172,109.19l-1.17,10.13.15,0a33.18,33.18,0,0,1,6.26-9.88,15.35,15.35,0,0,1,7.53-4.76q12.89-3,9.79,23.81L190,168Z" transform="translate(-11.25 -9.19)"/><path class="cls-1" d="M225.14,158.9a18,18,0,0,1-3.83,2.53,25.81,25.81,0,0,1-6.2,2.23q-6.83,1.6-10-3.69t-1.81-16.76l2.75-23.87-6.17,1.46,2.15-18.68,6.18-1.46,1.47-12.72,17-11.14-2.31,20.07L232.53,95l-2.16,18.67-8.17,1.93L220,135q-1,8.55,3.11,7.58a11,11,0,0,0,4.23-2.35Z" transform="translate(-11.25 -9.19)"/><path class="cls-1" d="M247.09,130.51c0,2.72.68,4.67,2.16,5.87s3.59,1.46,6.32.82A26.53,26.53,0,0,0,266.81,131l-2,17.1A35.72,35.72,0,0,1,250,155.46q-10.29,2.41-15-4.91T232,128a73.41,73.41,0,0,1,4.64-19,43.87,43.87,0,0,1,8.88-14.26q5.46-5.69,11.41-7.09t10,1.47q3.88,2.91,5.31,9.47a49.93,49.93,0,0,1,.33,16.06l-1.17,10.13Zm11.45-16.43Q259.83,102.86,255,104q-2,.48-3.77,3.87a29.14,29.14,0,0,0-2.55,8.52Z" transform="translate(-11.25 -9.19)"/><path class="cls-1" d="M308.52,99.54a6.46,6.46,0,0,0-2.34-.68,7.11,7.11,0,0,0-2.55,0q-8.1,1.91-9.88,17.36l-3.25,28.11-16.34,3.85,7.49-64.84L298,79.53l-1.31,11.4.15,0a33.38,33.38,0,0,1,5.34-10.34A12.74,12.74,0,0,1,309,75.84a3,3,0,0,1,2.26.21Z" transform="translate(-11.25 -9.19)"/><path class="cls-1" d="M359.38,128.15,363.7,90.8q.54-4.69-.21-6.76a2.3,2.3,0,0,0-3.05-1.53c-1.51.36-2.8,1.57-3.86,3.65a24.19,24.19,0,0,0-2.17,8.12l-4.16,36-16.35,3.85,4.25-36.72q1.14-9.95-3-9c-1.67.39-3,1.64-4.1,3.76a26.26,26.26,0,0,0-2.22,8.56l-4.1,35.52-16.35,3.85,7.49-64.84,16.35-3.84-1.19,10.25.16,0a32.55,32.55,0,0,1,3.57-6.23,30.56,30.56,0,0,1,5.08-5.63,13.64,13.64,0,0,1,5.68-3c2.79-.65,5-.3,6.73,1.07s3,3.86,3.78,7.48a32.59,32.59,0,0,1,6.5-9.69,17,17,0,0,1,8-4.75q6.18-1.45,8.71,4.42t1.09,18.41l-4.69,40.58Z" transform="translate(-11.25 -9.19)"/><path class="cls-1" d="M408.12,116.68l1.15-10-.15,0a55.17,55.17,0,0,1-4.45,7.64,24,24,0,0,1-4.09,4.35,12,12,0,0,1-4.93,2.46q-6.43,1.52-9-4.59t-1-19.6l4.51-39.13L406.47,54,402.19,91.1q-1.11,9.56,3.23,8.54a6.12,6.12,0,0,0,3.89-3.44,22.11,22.11,0,0,0,2.05-7.63l4.24-36.73L432,48l-7.49,64.84Z" transform="translate(-11.25 -9.19)"/><path class="cls-1" d="M460.06,103.59a18.44,18.44,0,0,1-3.84,2.54,26.16,26.16,0,0,1-6.19,2.22q-6.84,1.62-10-3.69t-1.82-16.75L441,64l-6.18,1.46L437,46.81l6.18-1.45,1.47-12.73,17-11.14-2.32,20.07,8.17-1.92-2.15,18.68-8.18,1.92-2.24,19.44q-1,8.55,3.12,7.58a10.83,10.83,0,0,0,4.23-2.35Z" transform="translate(-11.25 -9.19)"/><path class="cls-1" d="M482,75.2q-.06,4.08,2.16,5.87t6.33.82a26.5,26.5,0,0,0,11.23-6.16l-2,17.1a35.72,35.72,0,0,1-14.88,7.32q-10.29,2.41-15-4.91t-3-22.52a73.41,73.41,0,0,1,4.64-19,43.88,43.88,0,0,1,8.89-14.26q5.44-5.69,11.4-7.09,6.11-1.43,10,1.47t5.31,9.47a49.94,49.94,0,0,1,.33,16.06l-1.17,10.13Zm11.46-16.43q1.29-11.21-3.58-10.06-2,.48-3.77,3.87a28.64,28.64,0,0,0-2.55,8.52Z" transform="translate(-11.25 -9.19)"/><path class="cls-2" d="M261.84,177.42a10.9,10.9,0,0,1-3.75,8.62q-3.75,3.27-10.38,3.28a14.24,14.24,0,0,1-9.87-3.43,10.9,10.9,0,0,1-3.84-8.47,10.42,10.42,0,0,1,3.78-8.35q3.78-3.18,10.17-3.19A15.25,15.25,0,0,1,258,169.07,10.35,10.35,0,0,1,261.84,177.42Z" transform="translate(-11.25 -9.19)"/><path class="cls-2" d="M322.54,186.15a23.53,23.53,0,0,1-7.56,2.29,71,71,0,0,1-11.89.88,36.59,36.59,0,0,1-17-3.84,28,28,0,0,1-11.57-10.75,29.91,29.91,0,0,1-4.1-15.53q0-10.3,4.36-17.66a28.39,28.39,0,0,1,12.46-11.25,42.68,42.68,0,0,1,18.75-3.9,65.27,65.27,0,0,1,10.51.76c3.11.51,5.11,1.09,6,1.76v19.45a17.7,17.7,0,0,0-5.39-2.58,21.74,21.74,0,0,0-6.51-1.11q-7.32,0-11.1,3.49T295.76,158q0,6.21,3.72,9.64T309.71,171a25.56,25.56,0,0,0,12.83-3.34Z" transform="translate(-11.25 -9.19)"/><path class="cls-2" d="M399.24,156.8q0,15.18-9.17,23.85t-25.64,8.67q-16.33,0-25.46-8.47t-9.11-23.35a31.31,31.31,0,0,1,4.28-16.58,27.76,27.76,0,0,1,12.19-10.78,42.07,42.07,0,0,1,18.22-3.75A40.88,40.88,0,0,1,383,130.31a28.59,28.59,0,0,1,12,10.9A29.73,29.73,0,0,1,399.24,156.8Zm-25.31.12q0-12.25-9.38-12.25t-9.37,12.83q0,13.55,9.49,13.54Q373.92,171,373.93,156.92Z" transform="translate(-11.25 -9.19)"/><path class="cls-2" d="M486.37,187.85V153.28c0-2.89-.52-5-1.56-6.47s-2.72-2.14-5.06-2.14a6.31,6.31,0,0,0-5.39,2.61,11.92,11.92,0,0,0-1.94,7.23v33.34h-25v-34q0-9.19-6.27-9.2a6.63,6.63,0,0,0-5.74,2.67q-1.93,2.66-1.93,7.64v32.87h-25v-60h25v9.5h.23a19.42,19.42,0,0,1,4.48-5.13,26.41,26.41,0,0,1,6.95-4.22,21.6,21.6,0,0,1,8.37-1.61,21.23,21.23,0,0,1,10.76,2.52,19.47,19.47,0,0,1,7.29,8,21.4,21.4,0,0,1,8.44-7.77,25.2,25.2,0,0,1,11.72-2.72q9.44,0,14.47,6.15t5,17.75v37.56Z" transform="translate(-11.25 -9.19)"/><path class="cls-2" d="M152.38,73.67V66.05h-.19q-5,8.83-15.24,8.84-7.08,0-11.08-4.2t-4-11.23q0-14.74,18.12-17.09l12.4-1.61a4.73,4.73,0,0,0-2.2-4,10,10,0,0,0-5.9-1.56q-8.4,0-17.73,4.79V26.45a47.6,47.6,0,0,1,10.16-2.88,58.94,58.94,0,0,1,10.45-1.12q12.74,0,18.48,5.44t5.74,18.19V73.67Zm-12.3-17A4.62,4.62,0,0,0,141.37,60a4.93,4.93,0,0,0,3.69,1.32,6.53,6.53,0,0,0,5.29-2.44,9.41,9.41,0,0,0,2-6.25v-1.9l-7,1C141.83,52.33,140.08,54,140.08,56.67Z" transform="translate(-11.25 -9.19)"/><path class="cls-2" d="M217.18,73.67H192.47l-16.7-50h21.68L203.55,51a61.94,61.94,0,0,1,1.61,9.91h.3c.06-.65.15-1.31.27-2s2.53-12.42,7.25-35.2h21.58Z" transform="translate(-11.25 -9.19)"/><path class="cls-2" d="M257.46,54.57a7,7,0,0,0,3.71,5.06,16.77,16.77,0,0,0,8.4,1.83,34.68,34.68,0,0,0,13.77-2.78V71.86q-7.57,3-18.36,3-13.1,0-20.36-6.69t-7.28-18.41a30.4,30.4,0,0,1,3.2-14.21A23,23,0,0,1,250,25.94a28,28,0,0,1,13.85-3.49,27.34,27.34,0,0,1,13.28,3,20.12,20.12,0,0,1,8.37,8.5,27.2,27.2,0,0,1,2.86,12.79v7.81ZM270,43.69q0-8.65-6.2-8.65a5.24,5.24,0,0,0-4.35,2.37,11.88,11.88,0,0,0-2.05,6.28Z" transform="translate(-11.25 -9.19)"/><path class="cls-2" d="M116.88,63.8q0,17-7.15,30.12a49.35,49.35,0,0,1-20.43,20.2q-13.29,7.11-30.63,7.1H11.25V9.19H57.66Q116.88,9.19,116.88,63.8ZM81,64.12A32.29,32.29,0,0,0,77.7,49.35a24,24,0,0,0-9.5-10.16A28.39,28.39,0,0,0,53.67,35.6H45V94.82h9.45q12.12,0,19.34-8.32T81,64.12Z" transform="translate(-11.25 -9.19)"/><path class="cls-3" d="M99.36,185l-17.61,4.15-1.67-49.93q-.09-2.15.51-10.84l-.15,0q-1.48,7.94-2.39,11.28L63.83,193.33l-18.65,4.39L42.54,110l18.19-4.28-1.57,52.35q0,1-.33,5.81l-.38,5.2.23-.05q.27-1.66,1.11-5.71t1.41-6.1l14.61-55,18.07-4.26.85,52.16-.13,5.26-.22,5.17.16,0,.37-2.24,1.51-8.92,11-54.57,16.35-3.85Z" transform="translate(-11.25 -9.19)"/><path class="cls-3" d="M118,180.58l7.49-64.84,16.34-3.85-7.48,64.84Zm26.81-86.39A20.91,20.91,0,0,1,141.2,104a11.91,11.91,0,0,1-7,5.1q-4,.95-6.12-2.13c-1.42-2-1.91-4.89-1.49-8.52a20.21,20.21,0,0,1,3.51-9.6,11.92,11.92,0,0,1,7-5c2.74-.65,4.81,0,6.22,1.89S145.21,90.48,144.78,94.19Z" transform="translate(-11.25 -9.19)"/><path class="cls-3" d="M167.66,168.88l4.09-35.39q.69-6-.1-8.39a2.44,2.44,0,0,0-3.24-1.79c-1.41.33-2.61,1.5-3.62,3.5a21.85,21.85,0,0,0-2,7.24l-4.27,37-16.35,3.85L149.67,110,166,106.19l-1.17,10.13.15,0a33.18,33.18,0,0,1,6.26-9.88,15.35,15.35,0,0,1,7.53-4.76q12.89-3,9.79,23.81L184,165Z" transform="translate(-11.25 -9.19)"/><path class="cls-3" d="M219.14,155.9a18,18,0,0,1-3.83,2.53,25.81,25.81,0,0,1-6.2,2.23q-6.83,1.6-10-3.69t-1.81-16.76l2.75-23.87-6.17,1.46,2.15-18.68,6.18-1.46,1.47-12.72,17-11.14-2.31,20.07L226.53,92l-2.16,18.67-8.17,1.93L214,132q-1,8.55,3.11,7.58a11,11,0,0,0,4.23-2.35Z" transform="translate(-11.25 -9.19)"/><path class="cls-3" d="M241.09,127.51c0,2.72.68,4.67,2.16,5.87s3.59,1.46,6.32.82A26.53,26.53,0,0,0,260.81,128l-2,17.1A35.72,35.72,0,0,1,244,152.46q-10.29,2.41-15-4.91T226,125a73.41,73.41,0,0,1,4.64-19,43.87,43.87,0,0,1,8.88-14.26q5.46-5.69,11.41-7.09t10,1.47q3.88,2.91,5.31,9.47a49.93,49.93,0,0,1,.33,16.06l-1.17,10.13Zm11.45-16.43Q253.83,99.86,249,101q-2,.48-3.77,3.87a29.14,29.14,0,0,0-2.55,8.52Z" transform="translate(-11.25 -9.19)"/><path class="cls-3" d="M302.52,96.54a6.46,6.46,0,0,0-2.34-.68,7.11,7.11,0,0,0-2.55,0q-8.1,1.91-9.88,17.36l-3.25,28.11-16.34,3.85,7.49-64.84L292,76.53l-1.31,11.4.15,0a33.38,33.38,0,0,1,5.34-10.34A12.74,12.74,0,0,1,303,72.84a3,3,0,0,1,2.26.21Z" transform="translate(-11.25 -9.19)"/><path class="cls-3" d="M353.38,125.15,357.7,87.8q.54-4.69-.21-6.76a2.3,2.3,0,0,0-3.05-1.53c-1.51.36-2.8,1.57-3.86,3.65a24.19,24.19,0,0,0-2.17,8.12l-4.16,36-16.35,3.85,4.25-36.72q1.14-9.95-3-9c-1.67.39-3,1.64-4.1,3.76a26.26,26.26,0,0,0-2.22,8.56l-4.1,35.52-16.35,3.85,7.49-64.84,16.35-3.84-1.19,10.25.16,0a32.55,32.55,0,0,1,3.57-6.23,30.56,30.56,0,0,1,5.08-5.63,13.64,13.64,0,0,1,5.68-3c2.79-.65,5-.3,6.73,1.07s3,3.86,3.78,7.48a32.59,32.59,0,0,1,6.5-9.69,17,17,0,0,1,8-4.75q6.18-1.45,8.71,4.42t1.09,18.41l-4.69,40.58Z" transform="translate(-11.25 -9.19)"/><path class="cls-3" d="M402.12,113.68l1.15-10-.15,0a55.17,55.17,0,0,1-4.45,7.64,24,24,0,0,1-4.09,4.35,12,12,0,0,1-4.93,2.46q-6.43,1.52-9-4.59t-1-19.6l4.51-39.13L400.47,51,396.19,88.1q-1.11,9.56,3.23,8.54a6.12,6.12,0,0,0,3.89-3.44,22.11,22.11,0,0,0,2.05-7.63l4.24-36.73L426,45l-7.49,64.84Z" transform="translate(-11.25 -9.19)"/><path class="cls-3" d="M454.06,100.59a18.44,18.44,0,0,1-3.84,2.54,26.16,26.16,0,0,1-6.19,2.22q-6.84,1.62-10-3.69t-1.82-16.75L435,61l-6.18,1.46L431,43.81l6.18-1.45,1.47-12.73,17-11.14-2.32,20.07,8.17-1.92-2.15,18.68-8.18,1.92-2.24,19.44q-1,8.55,3.12,7.58a10.83,10.83,0,0,0,4.23-2.35Z" transform="translate(-11.25 -9.19)"/><path class="cls-3" d="M476,72.2q-.06,4.08,2.16,5.87t6.33.82a26.5,26.5,0,0,0,11.23-6.16l-2,17.1a35.72,35.72,0,0,1-14.88,7.32q-10.29,2.41-15-4.91t-3-22.52a73.41,73.41,0,0,1,4.64-19,43.88,43.88,0,0,1,8.89-14.26q5.44-5.68,11.4-7.09,6.11-1.43,10,1.47t5.31,9.47a49.94,49.94,0,0,1,.33,16.06l-1.17,10.13Zm11.46-16.43q1.29-11.21-3.58-10.06-2,.48-3.77,3.87a28.64,28.64,0,0,0-2.55,8.52Z" transform="translate(-11.25 -9.19)"/></svg>